<svg xmlns="http://www.w3.org/2000/svg" viewBox="0 0 12 8">
  <rect x="3" y="0" width="1" height="1" fill="#E8541A"/>
  <rect x="4" y="0" width="1" height="1" fill="#E8541A"/>
  <rect x="2" y="1" width="1" height="1" fill="#E8541A"/>
  <rect x="3" y="1" width="1" height="1" fill="#E8541A"/>
  <rect x="4" y="1" width="1" height="1" fill="#E8541A"/>
  <rect x="5" y="1" width="1" height="1" fill="#E8541A"/>
  <rect x="2" y="2" width="1" height="1" fill="#E8541A"/>
  <rect x="4" y="2" width="1" height="1" fill="#E8541A"/>
  <rect x="5" y="2" width="1" height="1" fill="#E8541A"/>
  <rect x="6" y="2" width="1" height="1" fill="#E8541A"/>
  <rect x="7" y="2" width="1" height="1" fill="#E8541A"/>
  <rect x="1" y="3" width="1" height="1" fill="#E8541A"/>
  <rect x="2" y="3" width="1" height="1" fill="#E8541A"/>
  <rect x="3" y="3" width="1" height="1" fill="#E8541A"/>
  <rect x="4" y="3" width="1" height="1" fill="#E8541A"/>
  <rect x="5" y="3" width="1" height="1" fill="#E8541A"/>
  <rect x="6" y="3" width="1" height="1" fill="#E8541A"/>
  <rect x="7" y="3" width="1" height="1" fill="#E8541A"/>
  <rect x="8" y="3" width="1" height="1" fill="#E8541A"/>
  <rect x="2" y="4" width="1" height="1" fill="#E8541A"/>
  <rect x="3" y="4" width="1" height="1" fill="#E8541A"/>
  <rect x="4" y="4" width="1" height="1" fill="#E8541A"/>
  <rect x="5" y="4" width="1" height="1" fill="#E8541A"/>
  <rect x="6" y="4" width="1" height="1" fill="#E8541A"/>
  <rect x="7" y="4" width="1" height="1" fill="#E8541A"/>
  <rect x="8" y="4" width="1" height="1" fill="#E8541A"/>
  <rect x="3" y="5" width="1" height="1" fill="#E8541A"/>
  <rect x="4" y="5" width="1" height="1" fill="#E8541A"/>
  <rect x="5" y="5" width="1" height="1" fill="#E8541A"/>
  <rect x="3" y="6" width="1" height="1" fill="#E8541A"/>
  <rect x="5" y="6" width="1" height="1" fill="#E8541A"/>
  <rect x="0" y="7" width="12" height="1" fill="#E8541A"/>
</svg>